<?xml version="1.0" standalone="no"?>
<!DOCTYPE svg PUBLIC "-//W3C//DTD SVG 20010904//EN"
 "http://www.w3.org/TR/2001/REC-SVG-20010904/DTD/svg10.dtd">
<svg version="1.0" xmlns="http://www.w3.org/2000/svg"
 width="1961.000000pt" height="1961.000000pt" viewBox="0 0 1961.000000 1961.000000"
 preserveAspectRatio="xMidYMid meet">
<metadata>
Created by potrace 1.11, written by Peter Selinger 2001-2013
</metadata>
<g transform="translate(0.000000,1961.000000) scale(0.100000,-0.100000)"
fill="#000000" stroke="none">
<path d="M9459 19076 c-2 -2 -76 -7 -164 -10 -88 -4 -182 -9 -210 -11 -199
-15 -296 -24 -345 -30 -19 -3 -59 -7 -87 -10 -29 -3 -67 -7 -85 -9 -18 -3 -55
-8 -83 -11 -27 -4 -111 -16 -185 -26 -74 -11 -151 -22 -170 -25 -19 -2 -57 -9
-85 -14 -72 -15 -88 -18 -131 -24 -62 -10 -274 -54 -370 -77 -49 -11 -98 -22
-109 -25 -43 -8 -234 -56 -320 -81 -49 -14 -97 -26 -106 -28 -63 -13 -548
-168 -717 -231 -215 -79 -530 -206 -682 -276 -41 -19 -109 -50 -150 -69 -272
-123 -697 -352 -990 -532 -131 -81 -403 -257 -410 -266 -3 -3 -48 -35 -100
-70 -85 -58 -380 -276 -434 -321 -11 -10 -73 -60 -136 -111 -416 -338 -933
-843 -1216 -1189 -16 -19 -31 -37 -35 -40 -5 -4 -256 -317 -277 -345 -182
-245 -229 -310 -340 -476 -60 -90 -139 -213 -177 -274 -37 -60 -78 -127 -91
-147 -13 -21 -24 -40 -24 -43 0 -3 -12 -24 -26 -47 -74 -117 -394 -734 -394
-759 0 -5 -14 -37 -31 -71 -38 -80 -133 -308 -200 -480 -48 -125 -192 -547
-209 -613 -4 -16 -24 -88 -44 -160 -21 -71 -39 -139 -41 -150 -3 -11 -14 -56
-25 -100 -60 -231 -152 -706 -174 -900 -3 -27 -8 -59 -10 -70 -2 -11 -7 -47
-10 -80 -4 -33 -9 -78 -12 -100 -6 -48 -11 -95 -19 -195 -4 -41 -8 -91 -10
-110 -27 -248 -26 -1120 0 -1325 2 -16 7 -66 10 -110 3 -44 7 -91 9 -105 3
-14 7 -52 10 -85 9 -89 15 -146 21 -180 2 -16 7 -46 10 -65 4 -30 17 -116 30
-200 6 -41 34 -203 40 -230 3 -14 8 -38 11 -55 12 -66 74 -346 100 -445 14
-58 27 -109 28 -115 1 -5 10 -37 19 -70 10 -33 22 -76 27 -95 103 -369 263
-803 466 -1260 160 -361 448 -878 703 -1259 103 -154 304 -437 320 -451 3 -3
26 -32 50 -65 44 -59 259 -325 271 -335 3 -3 16 -18 28 -34 12 -16 49 -58 81
-95 33 -36 68 -75 78 -87 88 -102 440 -461 578 -589 83 -77 193 -175 275 -245
47 -40 87 -76 90 -80 5 -5 344 -276 400 -318 166 -126 572 -406 707 -488 31
-19 173 -106 203 -124 180 -112 644 -356 930 -487 170 -79 497 -215 640 -267
41 -15 84 -31 95 -36 174 -72 751 -249 1071 -330 76 -18 287 -66 344 -76 14
-3 66 -14 115 -24 93 -20 304 -58 365 -66 19 -2 76 -11 125 -19 91 -15 359
-49 470 -60 33 -3 78 -8 100 -10 22 -3 74 -7 115 -10 41 -3 95 -7 120 -9 286
-27 1068 -28 1435 -2 110 8 224 17 255 21 131 13 168 18 195 21 17 2 73 9 125
14 52 6 106 13 120 15 14 2 45 6 70 10 25 3 56 8 70 11 14 2 39 6 55 8 17 3
84 14 150 26 66 12 131 23 145 25 23 3 305 61 340 70 8 2 58 13 110 25 256 57
611 157 909 257 182 60 441 153 486 173 11 5 72 30 135 56 63 25 133 54 155
64 22 10 69 30 105 45 123 51 526 247 695 338 346 185 741 430 1058 655 105
75 417 309 427 321 3 3 39 33 80 66 41 32 81 65 88 72 7 6 34 29 60 50 202
164 581 525 828 792 38 41 76 81 84 90 8 9 71 81 140 161 110 126 143 167 220
263 8 11 20 24 25 31 25 27 209 272 287 381 153 216 340 503 451 695 48 84 59
103 152 270 101 182 285 569 377 789 33 80 66 160 73 176 39 88 169 454 210
590 15 50 35 115 45 145 11 30 23 73 29 95 5 22 18 72 30 110 11 39 22 81 25
95 3 14 12 50 21 80 8 30 17 67 20 82 3 14 14 66 26 115 22 92 26 110 34 156
3 15 12 60 21 100 14 68 23 118 29 162 1 11 8 49 15 85 7 36 14 74 15 85 2 11
6 44 10 74 4 30 8 62 10 71 2 9 6 41 10 71 3 30 8 65 10 79 2 14 7 57 11 95 3
39 8 79 10 89 2 10 6 61 9 113 4 52 8 103 10 114 26 134 26 1003 1 1299 -3 25
-7 81 -11 125 -4 44 -9 96 -11 115 -8 70 -15 136 -19 170 -3 19 -7 55 -10 80
-3 25 -7 56 -10 70 -2 14 -7 45 -10 70 -32 243 -139 763 -211 1015 -13 49 -32
115 -40 145 -45 169 -222 685 -269 787 -8 17 -15 34 -15 38 0 8 -52 133 -127
305 -67 152 -248 523 -313 640 -26 47 -61 111 -78 142 -17 32 -81 140 -142
240 -61 101 -116 192 -123 203 -7 11 -14 22 -17 25 -3 3 -21 30 -40 60 -35 56
-225 333 -246 360 -7 8 -56 74 -110 145 -292 388 -578 711 -958 1083 -140 137
-125 123 -252 237 -133 120 -182 163 -234 205 -24 19 -48 40 -54 45 -24 23
-217 177 -331 263 -66 50 -124 95 -130 99 -71 57 -401 281 -573 390 -132 84
-468 283 -477 283 -2 0 -28 14 -57 31 -29 18 -147 80 -263 138 -475 242 -912
424 -1400 585 -222 74 -298 97 -540 165 -84 24 -422 107 -485 120 -25 5 -106
21 -180 36 -74 15 -144 29 -155 31 -11 2 -31 6 -45 9 -14 2 -41 7 -60 10 -19
3 -61 10 -93 16 -32 5 -70 12 -85 14 -15 2 -45 6 -67 9 -111 16 -255 36 -300
41 -27 3 -63 8 -80 10 -16 2 -61 7 -100 10 -38 4 -88 8 -110 11 -42 5 -102 10
-255 19 -52 4 -115 8 -140 11 -51 6 -896 15 -901 10z"/>
</g>
</svg>
