<?xml version="1.0" encoding="UTF-8" standalone="no"?>
<svg
   xmlns:dc="http://purl.org/dc/elements/1.1/"
   xmlns:cc="http://creativecommons.org/ns#"
   xmlns:rdf="http://www.w3.org/1999/02/22-rdf-syntax-ns#"
   xmlns:svg="http://www.w3.org/2000/svg"
   xmlns="http://www.w3.org/2000/svg"
   xmlns:xlink="http://www.w3.org/1999/xlink"
   xmlns:sodipodi="http://sodipodi.sourceforge.net/DTD/sodipodi-0.dtd"
   xmlns:inkscape="http://www.inkscape.org/namespaces/inkscape"
   viewBox="0 0 64 64"
   width="64px"
   height="64px"
   version="1.1"
   id="svg25"
   sodipodi:docname="icons8-CSS-3.svg"
   inkscape:version="1.0.1 (3bc2e813f5, 2020-09-07)">
  <metadata
     id="metadata31">
    <rdf:RDF>
      <cc:Work
         rdf:about="">
        <dc:format>image/svg+xml</dc:format>
        <dc:type
           rdf:resource="http://purl.org/dc/dcmitype/StillImage" />
        <dc:title></dc:title>
      </cc:Work>
    </rdf:RDF>
  </metadata>
  <defs
     id="defs29">
    <linearGradient
       inkscape:collect="always"
       xlink:href="#slr0fspJZ8Sloslbv8ri_c"
       id="linearGradient872"
       gradientUnits="userSpaceOnUse"
       x1="31.995"
       y1="19.575"
       x2="31.995"
       y2="40.626"
       gradientTransform="translate(0.00628814,0.42492282)" />
    <linearGradient
       id="slr0fspJZ8Sloslbv8ri_c"
       x1="31.995"
       x2="31.995"
       y1="19.575"
       y2="40.626"
       gradientUnits="userSpaceOnUse">
      <stop
         offset="0"
         stop-color="#6dc7ff"
         id="stop16" />
      <stop
         offset="1"
         stop-color="#e6abff"
         id="stop18" />
    </linearGradient>
  </defs>
  <sodipodi:namedview
     pagecolor="#ffffff"
     bordercolor="#666666"
     borderopacity="1"
     objecttolerance="10"
     gridtolerance="10"
     guidetolerance="10"
     inkscape:pageopacity="0"
     inkscape:pageshadow="2"
     inkscape:window-width="1366"
     inkscape:window-height="715"
     id="namedview27"
     showgrid="false"
     inkscape:snap-bbox="true"
     inkscape:object-paths="true"
     inkscape:zoom="5.6568543"
     inkscape:cx="54.77387"
     inkscape:cy="28.724172"
     inkscape:window-x="0"
     inkscape:window-y="21"
     inkscape:window-maximized="1"
     inkscape:current-layer="svg25" />
  <linearGradient
     id="slr0fspJZ8Sloslbv8ri_a"
     x1="32.092"
     x2="32.092"
     y1="7.766"
     y2="57.066"
     gradientUnits="userSpaceOnUse">
    <stop
       offset="0"
       stop-color="#1a6dff"
       id="stop2" />
    <stop
       offset="1"
       stop-color="#c822ff"
       id="stop4" />
  </linearGradient>
  <path
     fill="url(#slr0fspJZ8Sloslbv8ri_a)"
     d="M53.316,8.324C53.127,8.118,52.859,8,52.579,8H13.605c-0.84,0-1.646,0.355-2.213,0.975 s-0.85,1.453-0.775,2.289l3.318,37.613c0.109,1.229,0.979,2.281,2.165,2.62l15.075,4.308c0.27,0.076,0.547,0.115,0.824,0.115 s0.555-0.039,0.824-0.115l15.075-4.308c1.186-0.339,2.056-1.392,2.165-2.621l3.511-39.788C53.6,8.809,53.506,8.531,53.316,8.324z M48.072,48.699c-0.037,0.417-0.32,0.76-0.722,0.874l-15.075,4.308c-0.18,0.053-0.371,0.053-0.551,0l-15.075-4.308 c-0.401-0.114-0.685-0.457-0.722-0.873l-3.318-37.612c-0.025-0.283,0.066-0.554,0.259-0.763C13.06,10.115,13.321,10,13.605,10 h37.882L48.072,48.699z"
     id="path7" />
  <linearGradient
     id="slr0fspJZ8Sloslbv8ri_b"
     x1="32.000999"
     x2="32.000999"
     y1="7.7659998"
     y2="57.066002"
     gradientUnits="userSpaceOnUse"
     xlink:href="#slr0fspJZ8Sloslbv8ri_c">
    <stop
       offset="0"
       stop-color="#1a6dff"
       id="stop9" />
    <stop
       offset="1"
       stop-color="#c822ff"
       id="stop11" />
  </linearGradient>
  <path
     fill="url(#slr0fspJZ8Sloslbv8ri_b)"
     d="M18.521,48.028l13.205,3.773c0.09,0.025,0.182,0.038,0.274,0.038s0.185-0.013,0.274-0.038 l13.205-3.773c0.398-0.114,0.686-0.462,0.722-0.874l3.006-34.066c0.024-0.279-0.069-0.557-0.259-0.764 C48.759,12.118,48.491,12,48.211,12H15.79c-0.28,0-0.548,0.118-0.737,0.324c-0.189,0.207-0.283,0.484-0.259,0.764l3.005,34.066 C17.835,47.566,18.122,47.914,18.521,48.028z M47.119,14l-2.85,32.294L32,49.8l-12.27-3.506L16.882,14H47.119z"
     id="path14"
     style="fill-opacity:1.0" />
  <path
     id="path870"
     style="fill:url(#linearGradient872)"
     d="m 22.587793,20.424703 c -0.291999,0 -0.522047,0.249016 -0.498047,0.541016 l 0.24414,3 c 0.021,0.259 0.238047,0.458984 0.498047,0.458984 h 8.486328 c 0.293,0 0.521047,0.249016 0.498047,0.541016 -2.385506,0.886563 -8.861328,3.214843 -8.861328,3.214843 -0.314563,0.138346 -0.389212,0.216006 -0.382812,0.367188 l 0.216797,3.408203 c 0.016,0.263 0.234046,0.46875 0.498046,0.46875 h 12.916016 c 0.289,0 0.519,0.245203 0.5,0.533203 l -0.269531,4.060547 c -0.013,0.201 -0.146891,0.376406 -0.337891,0.441406 l -3.980469,1.359375 c -0.105,0.036 -0.219218,0.036 -0.324218,0 l -3.984375,-1.361328 c -0.19,-0.065 -0.322891,-0.235547 -0.337891,-0.435547 l -0.158203,-2.134765 c -0.019,-0.261 -0.238,-0.462891 -0.5,-0.462891 h -3.347656 c -0.29,0 -0.52,0.246156 -0.5,0.535156 l 0.375,5.31836 c 0.014,0.203 0.149796,0.377406 0.341796,0.441406 l 8.115235,2.669922 c 0.102,0.033 0.2105,0.033 0.3125,0 l 8.113281,-2.669922 c 0.194,-0.064 0.328797,-0.239359 0.341797,-0.443359 l 0.707031,-11.320313 c 0.01383,-0.221327 -0.190041,-0.329894 -0.382812,-0.408203 h -8.722656 l 9.111328,-4.097656 0.636718,-3.494141 c 0.018,-0.288 -0.211,-0.53125 -0.5,-0.53125 z" />
</svg>
