<?xml version="1.0" encoding="UTF-8" standalone="no"?>
<svg
   xmlns:dc="http://purl.org/dc/elements/1.1/"
   xmlns:cc="http://creativecommons.org/ns#"
   xmlns:rdf="http://www.w3.org/1999/02/22-rdf-syntax-ns#"
   xmlns:svg="http://www.w3.org/2000/svg"
   xmlns="http://www.w3.org/2000/svg"
   xmlns:xlink="http://www.w3.org/1999/xlink"
   xmlns:sodipodi="http://sodipodi.sourceforge.net/DTD/sodipodi-0.dtd"
   xmlns:inkscape="http://www.inkscape.org/namespaces/inkscape"
   viewBox="0 0 64 64"
   width="64px"
   height="64px"
   version="1.1"
   id="svg25"
   sodipodi:docname="icons8-Sass-3.svg"
   inkscape:version="1.0.1 (3bc2e813f5, 2020-09-07)">
  <style
     id="style1005"></style>
  <metadata
     id="metadata31">
    <rdf:RDF>
      <cc:Work
         rdf:about="">
        <dc:format>image/svg+xml</dc:format>
        <dc:type
           rdf:resource="http://purl.org/dc/dcmitype/StillImage" />
        <dc:title></dc:title>
      </cc:Work>
    </rdf:RDF>
  </metadata>
  <defs
     id="defs29">
    <linearGradient
       id="slr0fspJZ8Sloslbv8ri_c"
       x1="31.995"
       x2="31.995"
       y1="19.575"
       y2="40.626"
       gradientUnits="userSpaceOnUse">
      <stop
         offset="0"
         stop-color="#6dc7ff"
         id="stop16" />
      <stop
         offset="1"
         stop-color="#e6abff"
         id="stop18" />
    </linearGradient>
    <linearGradient
       inkscape:collect="always"
       xlink:href="#slr0fspJZ8Sloslbv8ri_c"
       id="linearGradient3197"
       gradientUnits="userSpaceOnUse"
       x1="-62.73938"
       y1="-40.82444"
       x2="-62.73938"
       y2="84.173912"
       gradientTransform="matrix(0.18466602,0,0,0.18466602,45.452305,27.782916)" />
  </defs>
  <sodipodi:namedview
     pagecolor="#ffffff"
     bordercolor="#666666"
     borderopacity="1"
     objecttolerance="10"
     gridtolerance="10"
     guidetolerance="10"
     inkscape:pageopacity="0"
     inkscape:pageshadow="2"
     inkscape:window-width="1366"
     inkscape:window-height="715"
     id="namedview27"
     showgrid="false"
     inkscape:snap-bbox="true"
     inkscape:object-paths="true"
     inkscape:zoom="4"
     inkscape:cx="-3.1198796"
     inkscape:cy="18.661919"
     inkscape:window-x="0"
     inkscape:window-y="21"
     inkscape:window-maximized="1"
     inkscape:current-layer="svg25" />
  <linearGradient
     id="slr0fspJZ8Sloslbv8ri_a"
     x1="32.092"
     x2="32.092"
     y1="7.766"
     y2="57.066"
     gradientUnits="userSpaceOnUse">
    <stop
       offset="0"
       stop-color="#1a6dff"
       id="stop2" />
    <stop
       offset="1"
       stop-color="#c822ff"
       id="stop4" />
  </linearGradient>
  <path
     id="path3180"
     style="fill:url(#linearGradient3197);fill-opacity:1;stroke-width:0.184665"
     d="m 36.42011,17.484901 c -1.104494,0.0067 -1.692374,0.108624 -2.838518,0.404319 -5.524262,1.425235 -11.257335,5.363715 -13.143389,9.029519 -1.537526,2.988392 -0.407101,5.149693 4.510252,8.622316 1.193404,0.842778 2.168038,1.585758 2.165858,1.651174 -0.0022,0.06542 -0.720426,0.534521 -1.596351,1.042353 -1.884465,1.092549 -3.611048,2.68963 -4.119999,3.811261 -0.73101,1.611001 -0.322648,3.396692 0.930543,4.068785 0.796745,0.427386 1.698433,0.427792 3.065384,0.0011 2.093326,-0.653475 3.109216,-1.564831 4.059407,-3.640321 0.399017,-0.871567 0.505368,-1.385103 0.515045,-2.485057 0.0066,-0.762599 -0.04954,-1.606837 -0.125155,-1.876234 -0.135169,-0.481537 -0.11899,-0.492225 0.953987,-0.616757 2.104793,-0.244286 4.391299,0.560572 5.169207,1.81925 0.714989,1.156875 0.409837,2.500569 -0.696464,3.068269 -0.291242,0.14945 -0.373933,0.284663 -0.24995,0.408646 0.277655,0.277654 1.447568,-0.342958 1.935387,-1.026845 0.500143,-0.701158 0.537586,-2.298226 0.07466,-3.193423 -0.445043,-0.860616 -1.740486,-1.880612 -2.781172,-2.189663 -1.005945,-0.298726 -3.502745,-0.356124 -4.582386,-0.105313 -0.567467,0.131828 -0.737982,0.09838 -1.005566,-0.197289 -0.177221,-0.195831 -1.263151,-1.11445 -2.413283,-2.041425 -2.14712,-1.730522 -3.097276,-2.869612 -3.301266,-3.956975 -0.518842,-2.765672 2.45322,-5.950075 8.062909,-8.638546 2.952226,-1.414868 4.591517,-1.848269 7.004326,-1.85171 1.664495,-0.0024 2.051092,0.05662 2.731035,0.41694 0.88238,0.467607 1.514454,1.346308 1.515561,2.106347 0.0027,1.952264 -2.106152,4.51302 -4.816466,5.84908 -1.542333,0.7603 -3.53335,1.304183 -4.798068,1.310336 -0.965187,0.0047 -2.474605,-0.492212 -3.103979,-1.021794 -0.684839,-0.576255 -0.920815,-0.297985 -0.442187,0.521537 0.424573,0.726973 1.33086,1.359343 2.340064,1.632419 1.297241,0.351013 4.600573,0.115527 6.174049,-0.440026 3.671789,-1.296408 6.110919,-3.856501 6.689455,-7.021637 0.406269,-2.222661 -0.707531,-4.013983 -3.072597,-4.941259 -0.893538,-0.350332 -1.531313,-0.441202 -3.493866,-0.498092 -0.522804,-0.01515 -0.948301,-0.02354 -1.316469,-0.02128 z m -8.417091,21.123341 c 0.02808,-0.0013 0.04982,0.0025 0.06493,0.0119 0.29426,0.181863 0.164274,2.353362 -0.187193,3.12706 -0.430764,0.948258 -1.379905,1.897399 -2.328163,2.328162 -1.394753,0.633593 -2.127626,0.387404 -2.127626,-0.714499 0,-0.832959 0.543667,-1.827894 1.508346,-2.760613 0.844157,-0.816187 2.648479,-1.973516 3.069713,-1.992011 z" />
  <path
     fill="url(#slr0fspJZ8Sloslbv8ri_a)"
     d="M53.316,8.324C53.127,8.118,52.859,8,52.579,8H13.605c-0.84,0-1.646,0.355-2.213,0.975 s-0.85,1.453-0.775,2.289l3.318,37.613c0.109,1.229,0.979,2.281,2.165,2.62l15.075,4.308c0.27,0.076,0.547,0.115,0.824,0.115 s0.555-0.039,0.824-0.115l15.075-4.308c1.186-0.339,2.056-1.392,2.165-2.621l3.511-39.788C53.6,8.809,53.506,8.531,53.316,8.324z M48.072,48.699c-0.037,0.417-0.32,0.76-0.722,0.874l-15.075,4.308c-0.18,0.053-0.371,0.053-0.551,0l-15.075-4.308 c-0.401-0.114-0.685-0.457-0.722-0.873l-3.318-37.612c-0.025-0.283,0.066-0.554,0.259-0.763C13.06,10.115,13.321,10,13.605,10 h37.882L48.072,48.699z"
     id="path7" />
  <linearGradient
     id="slr0fspJZ8Sloslbv8ri_b"
     x1="32.000999"
     x2="32.000999"
     y1="7.7659998"
     y2="57.066002"
     gradientUnits="userSpaceOnUse"
     xlink:href="#slr0fspJZ8Sloslbv8ri_c"
     gradientTransform="translate(0.09117867,0.04049996)">
    <stop
       offset="0"
       stop-color="#1a6dff"
       id="stop9" />
    <stop
       offset="1"
       stop-color="#c822ff"
       id="stop11" />
  </linearGradient>
  <path
     fill="url(#slr0fspJZ8Sloslbv8ri_b)"
     d="m 18.612178,48.0685 13.205,3.773 c 0.09,0.025 0.182,0.038 0.274,0.038 0.092,0 0.185,-0.013 0.274,-0.038 l 13.205,-3.773 c 0.398,-0.114 0.686,-0.462 0.722,-0.874 l 3.006,-34.066 c 0.024,-0.279 -0.069,-0.557 -0.259,-0.764 -0.189,-0.206 -0.457,-0.324 -0.737,-0.324 h -32.421 c -0.28,0 -0.548,0.118 -0.737,0.324 -0.189,0.207 -0.283,0.484 -0.259,0.764 l 3.005,34.066 c 0.036,0.412 0.323,0.76 0.722,0.874 z m 28.598,-34.028 -2.85,32.294 -12.269,3.506 -12.27,-3.506 -2.848,-32.294 z"
     id="path14"
     style="fill:url(#slr0fspJZ8Sloslbv8ri_b);fill-opacity:1" />
</svg>
